PathFileType	3	(X/Y/Z)	C:\Users\hrist\Documents\PhD\NeuroM Model Experiments\Complete_Controller_Data_Collection\S2_M\LG_Walk_Slower\LG_Walk_Slower01.trc																																																																																																							
DataRate	CameraRate	NumFrames	NumMarkers	Units	OrigDataRate	OrigDataStartFrame	OrigNumFrames																																																																																																			
100	100	4	35	mm	100	792	481																																																																																																			
Frame#	Time	R.ASIS			L.ASIS			V.Sacral			R.Thigh.Upper			R.Knee.Med			R.Knee.Lat			R.Thigh.Rear			R.Thigh.Front			L.Thigh.Upper			L.Knee.Med			L.Knee.Lat			L.Thigh.Rear			L.Thigh.Front			R.Shank.Upper			R.Ankle.Med			R.Ankle.Lat			R.Shank.Front			R.Shank.Rear			L.Shank.Upper			L.Ankle.Med			L.Ankle.Lat			L.Shank.Front			L.Shank.Rear			R.Toe.Tip			R.Heel			R.Toe.Med			R.Toe.Lat			R.Midfoot.Lat			R.Midfoot.Sup			L.Heel			L.Toe.Tip			L.Toe.Med			L.Toe.Lat			L.Midfoot.Lat			L.Midfoot.Sup		
		X1	Y1	Z1	X2	Y2	Z2	X3	Y3	Z3	X4	Y4	Z4	X5	Y5	Z5	X6	Y6	Z6	X7	Y7	Z7	X8	Y8	Z8	X9	Y9	Z9	X10	Y10	Z10	X11	Y11	Z11	X12	Y12	Z12	X13	Y13	Z13	X14	Y14	Z14	X15	Y15	Z15	X16	Y16	Z16	X17	Y17	Z17	X18	Y18	Z18	X19	Y19	Z19	X20	Y20	Z20	X21	Y21	Z21	X22	Y22	Z22	X23	Y23	Z23	X24	Y24	Z24	X25	Y25	Z25	X26	Y26	Z26	X27	Y27	Z27	X28	Y28	Z28	X29	Y29	Z29	X30	Y30	Z30	X31	Y31	Z31	X32	Y32	Z32	X33	Y33	Z33	X34	Y34	Z34	X35	Y35	Z35
792	7.91	-129.9532138	989.2066239	271.4351659	131.6663104	988.3533903	242.9281524	-17.75585802	1024.51662	69.33537753	-182.3638632	757.1951501	206.3675612	0.992553586	513.5107478	244.4413448	-134.1329672	500.0708669	242.7514611	-160.3362911	647.6887887	219.9825354	-84.87829243	722.9322302	330.5896712	183.3663879	810.882785	132.6837301	82.56728012	486.8385562	171.208598	202.937628	512.9731496	130.6067178	196.5089914	657.3603694	141.665296	149.9042312	712.7053894	271.2733015	-129.9052518	450.9147699	239.1591697	15.13601996	99.72761371	197.3297869	-67.73855757	74.84934129	163.0712283	-62.31274477	398.8453287	292.0948328	-135.8083399	367.2777134	218.2797457	209.0871057	485.74493	106.3877881	90.78432055	200.5882983	-138.6767525	158.754225	239.3378814	-188.0903934	180.7292394	407.213479	131.7984405	215.0852277	442.3292489	51.13975976	-36.48109339	34.66225601	358.1247584	-10.40873013	36.08465629	95.59388644	-0.127328951	28.31432359	313.6914742	-108.5305707	27.89830616	296.1573244	-97.80646637	38.96565886	253.0057019	-3.113415249	52.94808125	279.4834346	83.18742266	245.6404592	-240.1929498	190.8823176	49.75708781	-110.5399019	139.3735324	69.42926678	-133.4817349	233.5441318	101.0909533	-176.2042437	214.7796307	135.8036797	-182.5071562	128.6034681	106.6401141	-138.1913672
793	7.92	-131.3508534	989.3642805	275.3421398	130.3029282	989.250373	246.9483356	-18.73863052	1024.791367	73.18213815	-183.1687166	757.3477426	209.1632781	0.269993236	513.5968117	246.6199691	-134.808864	500.0379936	244.1230588	-161.1803378	647.7805421	222.1010258	-86.39556129	722.5423129	333.7946565	182.7549026	811.426298	138.6051268	82.39707418	487.354521	183.4658427	202.3311583	513.5326438	142.1399303	196.3819408	657.5373288	150.6331462	149.6854076	714.8230759	279.1304576	-130.4614782	451.0186757	240.1029694	14.92247133	99.93702941	197.5343426	-67.89405927	75.02642757	163.1485564	-63.22488278	398.6663708	293.3208925	-136.258118	367.3101783	218.8831423	208.207663	486.5185157	117.894289	88.72800715	201.1603262	-126.0513986	155.828672	240.6331765	-176.2614773	180.766402	407.9141829	143.9008793	213.913249	442.8673737	62.88580131	-36.5556172	34.66017641	358.1773748	-10.48341208	36.21983171	95.74309156	-0.236033341	28.44839478	313.7558994	-108.6373238	27.86904087	296.1706092	-97.84769195	38.74016011	252.911785	-3.318828497	53.09171263	279.557839	79.62160271	245.7127345	-227.9162898	191.1570014	52.13421507	-97.85384736	139.1887558	70.94065586	-120.5781133	232.5670984	103.7649242	-164.1176282	213.1683368	138.1228825	-170.4927471	127.7569507	108.0015919	-125.4653129
794	7.93	-132.7098124	989.5117423	279.1546843	128.9604744	990.2072706	250.8755033	-19.72031814	1025.058779	76.98556621	-183.9156419	757.5035457	211.9895075	-0.305722887	513.7005135	248.6953237	-135.345568	499.9699016	245.5658944	-161.9209846	647.8391398	224.2364488	-87.76769358	722.1637674	336.9914815	182.1540177	811.8494112	144.6495371	82.21598696	488.1556182	195.4574409	201.7132691	514.1492613	153.5572088	196.2870315	657.8122852	159.4569951	149.5675731	717.073263	286.8603773	-131.1398329	451.0072188	241.1895475	14.83449446	100.0846116	197.6701653	-68.00597576	75.24280487	163.2900128	-63.88756633	398.4984316	294.5199463	-136.6117783	367.2954432	219.7014495	207.3541715	487.2570652	129.3426893	86.77260003	201.3507093	-113.1039872	153.1174046	241.3524324	-164.072859	180.6591804	408.6706784	156.0877496	212.8149456	443.2294786	75.011378	-36.60017618	34.64567564	358.2218097	-10.55957641	36.53278919	95.76780901	-0.319367541	28.53693515	313.8147149	-108.7095552	27.75217723	296.1126686	-97.88123479	38.66086557	252.9151787	-3.451436194	53.1725455	279.6310058	76.40088283	245.2088867	-215.3877091	191.1807571	54.0753781	-84.30355156	138.821204	72.06441198	-106.8759421	231.5289197	105.5879585	-151.3890577	211.5706766	139.7481463	-157.7448269	126.8468633	108.9857024	-112.0541287
795	7.94	-134.0121274	989.6214801	282.8913047	127.6553926	991.2041147	254.7155524	-20.72017878	1025.302912	80.77117323	-184.5584509	757.6146368	214.8249329	-0.74056435	513.8100442	250.6048216	-135.7619908	499.8643555	247.0702957	-162.5418602	647.8588075	226.3972229	-88.95136718	721.7644844	340.1588895	181.5613446	812.2516322	150.6840252	81.99914835	489.2178525	207.1933001	201.1192454	514.7818171	164.9002226	196.1891173	658.134904	168.164486	149.5136409	719.4100755	294.4620872	-131.5673523	450.8954018	242.4290227	14.81874914	100.2327182	197.8076148	-68.05762005	75.48099563	163.4967739	-64.27513657	398.3150763	295.6728716	-136.8190865	367.2558023	220.7234437	206.5581426	487.8756104	140.6975123	84.87152642	201.1944154	-99.86233967	150.5870469	241.4723963	-151.5361001	180.3609068	409.4275886	168.3113796	211.6573027	443.7440767	87.00581086	-36.62133247	34.61932706	358.2584834	-10.5897769	36.92259892	95.7082477	-0.36649274	28.55279615	313.8489257	-108.7390129	27.60197713	296.0250097	-97.91606068	38.74168519	253.0270424	-3.51031901	53.19233968	279.7027461	73.53718596	243.9811603	-202.6257303	191.0253069	55.75361727	-69.67785049	138.3182395	72.86257871	-92.22906999	230.4805363	106.7485191	-137.7104153	210.0596253	140.7335766	-144.1833641	125.89039	109.6031725	-97.84175819
